<svg id="Capa_1" enable-background="new 0 0 512 512" height="512" viewBox="0 0 512 512" width="512" xmlns="http://www.w3.org/2000/svg"><g><path d="m374.091 0h-334.808v512h334.808c54.382 0 98.626-44.63 98.626-99.012v-313.976c0-54.382-44.244-99.012-98.626-99.012zm-304.808 30.523h37.268v450.954h-37.268zm373.161 382.465c0 37.69-30.662 68.353-68.353 68.353h-237.268v-450.682h237.268c37.69 0 68.353 30.663 68.353 68.353z"/><path d="m413.06 235.686v-30h-27.724c0-22.893-4.828-44.262-18.747-62.922-14.636-19.62-36.722-33.123-60.913-36.991v-29.087h-30v29.087c-24.191 3.868-46.276 17.371-60.912 36.991-13.918 18.658-18.747 40.03-18.747 62.922h-27.723v30zm-187.043-36.447c0-35.653 29.007-64.66 64.66-64.66s64.659 29.006 64.659 64.66v6.447h-129.319z"/><path d="m167.932 421.736h245.489v-89.745h-245.489zm30-59.745h185.489v29.745h-185.489z"/></g></svg>