<svg height="512pt" viewBox="0 -46 512 512" width="512pt" xmlns="http://www.w3.org/2000/svg"><path d="m456.484375 268.605469-26.484375-158.90625c6.847656-1.390625 12-7.441407 12-14.699219v-80c0-8.285156-6.714844-15-15-15h-60c-25.128906 0-46.355469 16.941406-52.902344 40h-27.097656c-8.285156 0-15 6.714844-15 15s6.714844 15 15 15h27.097656c4.847656 17.070312 17.738282 30.789062 34.308594 36.757812l27.132812 162.78125c-27.359374 13.324219-47.402343 39.410157-52.351562 70.460938h-33.1875v-105c0-12.054688-3.90625-23.203125-10.507812-32.277344 12.332031-8.035156 20.507812-21.9375 20.507812-37.722656 0-24.8125-20.1875-45-45-45h-90c-9 0-17.492188 2.1875-25 6.035156v-41.035156c0-8.285156-6.714844-15-15-15h-110c-8.285156 0-15 6.714844-15 15v110c0 8.285156 6.714844 15 15 15h75.25c-30.628906 24.769531-50.25 62.632812-50.25 105v40c0 8.285156 6.714844 15 15 15h26.765625c6.792969 28.628906 32.554687 50 63.234375 50s56.441406-21.371094 63.234375-50h145.53125c6.792969 28.628906 32.554687 50 63.234375 50s56.441406-21.371094 63.234375-50h16.765625c8.285156 0 15-6.714844 15-15 0-38.300781-22.785156-71.378906-55.515625-86.394531zm-89.484375-238.605469h45v50h-45c-1.109375 0-2.203125-.078125-3.277344-.222656-.070312-.007813-.140625-.015625-.214844-.027344-12.136718-1.703125-21.507812-12.148438-21.507812-24.75 0-13.785156 11.214844-25 25-25zm12.363281 80h20.273438l25.054687 150.3125c-2.539062-.203125-5.101562-.3125-7.691406-.3125-4.238281 0-8.410156.28125-12.5.824219zm37.636719 180c30.679688 0 56.464844 21.363281 63.253906 50h-126.507812c6.789062-28.636719 32.574218-50 63.253906-50zm-252-140h90c8.269531 0 15 6.730469 15 15s-6.730469 15-15 15h-115v-5c0-13.785156 11.214844-25 25-25zm-135-50h80v80h-80zm40 215c0-57.898438 47.101562-105 105-105h60c13.785156 0 25 11.214844 25 25v105h-190zm75 75c-13.933594 0-25.988281-8.1875-31.617188-20h63.234376c-5.628907 11.8125-17.683594 20-31.617188 20zm272 0c-13.933594 0-25.988281-8.1875-31.617188-20h63.234376c-5.628907 11.8125-17.683594 20-31.617188 20zm0 0"/></svg>